<svg xmlns="http://www.w3.org/2000/svg" width="1320" height="610" viewBox="0 0 1320 610" role="img" aria-label="Awesome Practical CN">
  <defs>
    <linearGradient id="bg" x1="0" y1="0" x2="1" y2="1">
      <stop offset="0%" stop-color="#fbfdff"/>
      <stop offset="100%" stop-color="#eef6ff"/>
    </linearGradient>
    <filter id="shadow" x="-25%" y="-25%" width="150%" height="150%">
      <feDropShadow dx="0" dy="10" stdDeviation="13" flood-color="#15304f" flood-opacity=".13"/>
    </filter>
    <style>
      .title{font:800 48px -apple-system,BlinkMacSystemFont,"Segoe UI",sans-serif;fill:#0f172a}
      .sub{font:500 22px -apple-system,BlinkMacSystemFont,"Segoe UI",sans-serif;fill:#52637a}
      .card{font:760 24px -apple-system,BlinkMacSystemFont,"Segoe UI",sans-serif;fill:#142033}
      .small{font:600 18px -apple-system,BlinkMacSystemFont,"Segoe UI",sans-serif;fill:#64748b}
    </style>
  </defs>
  <rect width="1320" height="610" rx="34" fill="url(#bg)"/>
  <circle cx="1120" cy="120" r="170" fill="#dbeafe" opacity=".65"/>
  <circle cx="140" cy="510" r="150" fill="#dcfce7" opacity=".55"/>
  <text x="72" y="98" class="title">Awesome Practical CN</text>
  <text x="74" y="142" class="sub">20 个中文实用信息汇总贴：链接、截图、用途、避坑和快速上手</text>
  <text x="74" y="188" class="small">AI · 学生福利 · 科研论文 · 免费课程 · 设计素材 · 远程开发 · 效率工具 · 量化 · 镜像</text>
  <rect x="80" y="245" width="240" height="82" rx="22" fill="#ffffff" filter="url(#shadow)"/><circle cx="122" cy="286" r="18" fill="#2563eb" opacity=".92"/><text x="156" y="295" class="card">AI 工具</text><rect x="370" y="245" width="240" height="82" rx="22" fill="#ffffff" filter="url(#shadow)"/><circle cx="412" cy="286" r="18" fill="#16a34a" opacity=".92"/><text x="446" y="295" class="card">学生福利</text><rect x="660" y="245" width="240" height="82" rx="22" fill="#ffffff" filter="url(#shadow)"/><circle cx="702" cy="286" r="18" fill="#9333ea" opacity=".92"/><text x="736" y="295" class="card">科研论文</text><rect x="950" y="245" width="240" height="82" rx="22" fill="#ffffff" filter="url(#shadow)"/><circle cx="992" cy="286" r="18" fill="#ea580c" opacity=".92"/><text x="1026" y="295" class="card">效率工具</text><rect x="80" y="365" width="240" height="82" rx="22" fill="#ffffff" filter="url(#shadow)"/><circle cx="122" cy="406" r="18" fill="#0891b2" opacity=".92"/><text x="156" y="415" class="card">PDF/OCR</text><rect x="370" y="365" width="240" height="82" rx="22" fill="#ffffff" filter="url(#shadow)"/><circle cx="412" cy="406" r="18" fill="#dc2626" opacity=".92"/><text x="446" y="415" class="card">量化回测</text><rect x="660" y="365" width="240" height="82" rx="22" fill="#ffffff" filter="url(#shadow)"/><circle cx="702" cy="406" r="18" fill="#4f46e5" opacity=".92"/><text x="736" y="415" class="card">开源替代</text><rect x="950" y="365" width="240" height="82" rx="22" fill="#ffffff" filter="url(#shadow)"/><circle cx="992" cy="406" r="18" fill="#0f766e" opacity=".92"/><text x="1026" y="415" class="card">镜像下载</text>
</svg>
